<svg width="88" height="76" viewBox="0 0 88 76" fill="none" xmlns="http://www.w3.org/2000/svg">
	<path d="M1.984 62V59.824H7.36V16.816H1.984V14.64H28.928V28.336H27.136L26.24 21.488C25.856 18.416 24.0853 16.88 20.928 16.88H11.84V35.056H20.864V26.928H22.784V45.36H20.864V37.232H11.84V59.824H22.208V62H1.984Z" fill="#C0C0C0"/>
	<path d="M37.984 62V59.824H43.36V16.816H37.984V14.64H53.216V16.816H47.84V59.76H56.928C60.0427 59.76 61.792 58.2027 62.176 55.088L63.136 47.024H64.928V62H37.984Z" fill="#C0C0C0"/>
	<rect x="74" y="56" width="14" height="14" rx="2" fill="#C0C0C0"/>
</svg>
